HIERARCHY
ROOT Hips
{
	OFFSET 0.000000 87.230942 0.000000
	CHANNELS 6 Xposition Yposition Zposition Xrotation Yrotation Zrotation
	JOINT Pelvis
	{
		OFFSET 0.000000 0.000000 0.000000
		CHANNELS 3 Xrotation Yrotation Zrotation
		JOINT LeftUpLeg
		{
			OFFSET 12.017000 -9.376404 -2.439400
			CHANNELS 3 Xrotation Yrotation Zrotation
			JOINT LeftLeg
			{
				OFFSET -0.007312 -32.846973 2.110600
				CHANNELS 3 Xrotation Yrotation Zrotation
				JOINT LeftFoot
				{
					OFFSET 0.007312 -32.065170 -0.570400
					CHANNELS 3 Xrotation Yrotation Zrotation
					JOINT LeftToeBase
					{
						OFFSET 0.728300 -11.045900 13.180700
						CHANNELS 3 Xrotation Yrotation Zrotation
						End Site
						{
							OFFSET 0.000000 17.212589 0.000000
						}
					}
				}
				JOINT LeftPantLeg
				{
					OFFSET 0.002788 -16.709013 -3.143600
					CHANNELS 3 Xrotation Yrotation Zrotation
					End Site
					{
						OFFSET -0.605125 24.528742 0.000000
					}
				}
			}
			JOINT Left_Butt
			{
				OFFSET -6.630234 1.326584 -3.183700
				CHANNELS 3 Xrotation Yrotation Zrotation
				End Site
				{
					OFFSET -0.498041 20.188049 0.000000
				}
			}
		}
		JOINT RightUpLeg
		{
			OFFSET -11.717000 -9.376404 -2.439400
			CHANNELS 3 Xrotation Yrotation Zrotation
			JOINT RightLeg
			{
				OFFSET -0.003241 -32.846912 2.110600
				CHANNELS 3 Xrotation Yrotation Zrotation
				JOINT RightFoot
				{
					OFFSET 0.003241 -32.065136 -0.570500
					CHANNELS 3 Xrotation Yrotation Zrotation
					JOINT RightToeBase
					{
						OFFSET -0.728300 -11.045901 13.180700
						CHANNELS 3 Xrotation Yrotation Zrotation
						End Site
						{
							OFFSET 0.000000 17.212593 0.000000
						}
					}
				}
				JOINT RightPantLeg
				{
					OFFSET 0.008142 -16.708982 -3.143700
					CHANNELS 3 Xrotation Yrotation Zrotation
					End Site
					{
						OFFSET 0.605088 24.528715 0.000000
					}
				}
			}
			JOINT Right_Butt
			{
				OFFSET 6.630732 1.326584 -3.183700
				CHANNELS 3 Xrotation Yrotation Zrotation
				End Site
				{
					OFFSET 0.498015 20.188240 0.000000
				}
			}
		}
	}
	JOINT Spine
	{
		OFFSET -0.062400 7.848404 3.918300
		CHANNELS 3 Xrotation Yrotation Zrotation
		JOINT Spine1
		{
			OFFSET -0.072800 11.422302 0.713400
			CHANNELS 3 Xrotation Yrotation Zrotation
			JOINT Spine2
			{
				OFFSET -0.083200 13.054001 -1.931600
				CHANNELS 3 Xrotation Yrotation Zrotation
				JOINT Neck
				{
					OFFSET -0.092200 14.121796 -5.138800
					CHANNELS 3 Xrotation Yrotation Zrotation
					JOINT Head
					{
						OFFSET 0.000200 10.447403 -0.842000
						CHANNELS 3 Xrotation Yrotation Zrotation
						JOINT Visor
						{
							OFFSET 0.457100 25.671204 16.550400
							CHANNELS 3 Xrotation Yrotation Zrotation
							End Site
							{
								OFFSET 0.000000 26.061493 0.000000
							}
						}
						JOINT HairMidA
						{
							OFFSET 0.459400 31.585403 8.437400
							CHANNELS 3 Xrotation Yrotation Zrotation
							End Site
							{
								OFFSET 0.000000 26.061493 0.000000
							}
						}
						JOINT HairMidB
						{
							OFFSET 0.464000 33.309204 -8.389700
							CHANNELS 3 Xrotation Yrotation Zrotation
							End Site
							{
								OFFSET 0.000000 26.061493 0.000000
							}
						}
						JOINT HairMidC
						{
							OFFSET 0.466600 27.991196 -17.375099
							CHANNELS 3 Xrotation Yrotation Zrotation
							End Site
							{
								OFFSET 0.000000 26.061493 0.000000
							}
						}
						JOINT HairMidD
						{
							OFFSET 0.467700 17.888092 -21.169500
							CHANNELS 3 Xrotation Yrotation Zrotation
							End Site
							{
								OFFSET 0.000000 26.061493 0.000000
							}
						}
						JOINT HairMidE
						{
							OFFSET 5.325700 3.514603 -14.369699
							CHANNELS 3 Xrotation Yrotation Zrotation
							End Site
							{
								OFFSET 0.000000 26.061493 0.000000
							}
						}
						JOINT HairMidF
						{
							OFFSET -4.394100 3.514603 -14.372400
							CHANNELS 3 Xrotation Yrotation Zrotation
							End Site
							{
								OFFSET 0.000000 26.061493 0.000000
							}
						}
						JOINT HairLeftA
						{
							OFFSET 15.319900 25.746506 2.623300
							CHANNELS 3 Xrotation Yrotation Zrotation
							End Site
							{
								OFFSET 0.000000 26.061493 0.000000
							}
						}
						JOINT HairLeftB
						{
							OFFSET 12.619500 29.289398 -8.731499
							CHANNELS 3 Xrotation Yrotation Zrotation
							End Site
							{
								OFFSET 0.000000 26.061493 0.000000
							}
						}
						JOINT HairLeftC
						{
							OFFSET 15.714800 15.959900 2.909800
							CHANNELS 3 Xrotation Yrotation Zrotation
							End Site
							{
								OFFSET 0.000000 26.061493 0.000000
							}
						}
						JOINT HairLeftD
						{
							OFFSET 16.101700 18.437408 -7.553200
							CHANNELS 3 Xrotation Yrotation Zrotation
							End Site
							{
								OFFSET 0.000000 26.061493 0.000000
							}
						}
						JOINT HairLeftE
						{
							OFFSET 9.731900 17.915009 -18.316799
							CHANNELS 3 Xrotation Yrotation Zrotation
							End Site
							{
								OFFSET 0.000000 26.061493 0.000000
							}
						}
						JOINT HairLeftF
						{
							OFFSET 11.204300 4.953598 -9.668100
							CHANNELS 3 Xrotation Yrotation Zrotation
							End Site
							{
								OFFSET 0.000000 26.061493 0.000000
							}
						}
						JOINT HairRightA
						{
							OFFSET -14.397900 25.746307 2.615100
							CHANNELS 3 Xrotation Yrotation Zrotation
							End Site
							{
								OFFSET 0.000000 26.061493 0.000000
							}
						}
						JOINT HairRightB
						{
							OFFSET -11.691200 29.289200 -8.738199
							CHANNELS 3 Xrotation Yrotation Zrotation
							End Site
							{
								OFFSET 0.000000 26.061493 0.000000
							}
						}
						JOINT HairRightC
						{
							OFFSET -14.792900 15.959702 2.901400
							CHANNELS 3 Xrotation Yrotation Zrotation
							End Site
							{
								OFFSET 0.000000 26.061493 0.000000
							}
						}
						JOINT HairRightD
						{
							OFFSET -15.174000 18.437195 -7.561900
							CHANNELS 3 Xrotation Yrotation Zrotation
							End Site
							{
								OFFSET 0.000000 26.061493 0.000000
							}
						}
						JOINT HairRightE
						{
							OFFSET -8.798200 17.914902 -18.322001
							CHANNELS 3 Xrotation Yrotation Zrotation
							End Site
							{
								OFFSET 0.000000 26.061493 0.000000
							}
						}
						JOINT HairRightF
						{
							OFFSET -10.275200 4.953506 -9.674099
							CHANNELS 3 Xrotation Yrotation Zrotation
							End Site
							{
								OFFSET 0.000000 26.061493 0.000000
							}
						}
					}
				}
				JOINT LeftShoulder
				{
					OFFSET 5.133500 7.341202 -1.867600
					CHANNELS 3 Xrotation Yrotation Zrotation
					JOINT LeftArm
					{
						OFFSET 8.072663 0.936867 -2.176600
						CHANNELS 3 Xrotation Yrotation Zrotation
						JOINT LeftForeArm
						{
							OFFSET 31.271999 0.000000 0.000000
							CHANNELS 3 Xrotation Yrotation Zrotation
							JOINT LeftHand
							{
								OFFSET 31.771030 0.000000 0.000000
								CHANNELS 3 Xrotation Yrotation Zrotation
								JOINT LeftHandThumb1
								{
									OFFSET 2.886520 -2.557846 4.416640
									CHANNELS 3 Xrotation Yrotation Zrotation
									JOINT LeftHandThumb2
									{
										OFFSET 2.371025 -1.368912 1.368911
										CHANNELS 3 Xrotation Yrotation Zrotation
										JOINT LeftHandThumb3
										{
											OFFSET 2.243378 -1.295212 1.295213
											CHANNELS 3 Xrotation Yrotation Zrotation
											End Site
											{
												OFFSET -0.332611 2.876945 0.020015
											}
										}
									}
								}
								JOINT LeftHandIndex1
								{
									OFFSET 8.568985 -0.641945 3.119977
									CHANNELS 3 Xrotation Yrotation Zrotation
									JOINT LeftHandIndex2
									{
										OFFSET 3.348503 0.000000 0.000000
										CHANNELS 3 Xrotation Yrotation Zrotation
										JOINT LeftHandIndex3
										{
											OFFSET 3.314552 0.000000 0.000000
											CHANNELS 3 Xrotation Yrotation Zrotation
											End Site
											{
												OFFSET -1.032898 3.075485 0.678796
											}
										}
									}
								}
								JOINT LeftHandMiddle1
								{
									OFFSET 8.124603 0.000000 0.000000
									CHANNELS 3 Xrotation Yrotation Zrotation
									JOINT LeftHandMiddle2
									{
										OFFSET 4.166275 0.000000 0.000000
										CHANNELS 3 Xrotation Yrotation Zrotation
										JOINT LeftHandMiddle3
										{
											OFFSET 3.018135 0.000000 0.000000
											CHANNELS 3 Xrotation Yrotation Zrotation
											End Site
											{
												OFFSET -1.032700 2.767982 0.617226
											}
										}
									}
								}
								JOINT LeftHandRing1
								{
									OFFSET 8.571686 -0.031357 -2.884048
									CHANNELS 3 Xrotation Yrotation Zrotation
									JOINT LeftHandRing2
									{
										OFFSET 3.671181 0.000000 0.000000
										CHANNELS 3 Xrotation Yrotation Zrotation
										JOINT LeftHandRing3
										{
											OFFSET 2.728851 0.000000 0.000000
											CHANNELS 3 Xrotation Yrotation Zrotation
											End Site
											{
												OFFSET -0.815796 2.539223 0.577389
											}
										}
									}
								}
								JOINT LeftHandPinky1
								{
									OFFSET 7.854515 -0.675232 -5.213020
									CHANNELS 3 Xrotation Yrotation Zrotation
									JOINT LeftHandPinky2
									{
										OFFSET 3.068596 0.000000 0.000000
										CHANNELS 3 Xrotation Yrotation Zrotation
										JOINT LeftHandPinky3
										{
											OFFSET 2.396042 0.000000 0.000000
											CHANNELS 3 Xrotation Yrotation Zrotation
											End Site
											{
												OFFSET -0.524597 2.267998 0.567429
											}
										}
									}
								}
							}
							JOINT LeftSleeve
							{
								OFFSET 19.684509 -0.200119 0.476146
								CHANNELS 3 Xrotation Yrotation Zrotation
								End Site
								{
									OFFSET -0.031017 25.731133 -0.002868
								}
							}
						}
					}
				}
				JOINT RightShoulder
				{
					OFFSET -4.395900 7.341202 -1.870200
					CHANNELS 3 Xrotation Yrotation Zrotation
					JOINT RightArm
					{
						OFFSET -8.071453 0.936867 -2.181100
						CHANNELS 3 Xrotation Yrotation Zrotation
						JOINT RightForeArm
						{
							OFFSET -31.272011 0.000000 0.000000
							CHANNELS 3 Xrotation Yrotation Zrotation
							JOINT RightHand
							{
								OFFSET -31.771019 0.000000 0.000000
								CHANNELS 3 Xrotation Yrotation Zrotation
								JOINT RightHandThumb1
								{
									OFFSET -2.886520 -2.557808 4.416626
									CHANNELS 3 Xrotation Yrotation Zrotation
									JOINT RightHandThumb2
									{
										OFFSET -2.371056 -1.368927 1.368928
										CHANNELS 3 Xrotation Yrotation Zrotation
										JOINT RightHandThumb3
										{
											OFFSET -2.243362 -1.295204 1.295206
											CHANNELS 3 Xrotation Yrotation Zrotation
											End Site
											{
												OFFSET 0.332642 2.876938 0.020047
											}
										}
									}
								}
								JOINT RightHandIndex1
								{
									OFFSET -8.568993 -0.641953 3.120017
									CHANNELS 3 Xrotation Yrotation Zrotation
									JOINT RightHandIndex2
									{
										OFFSET -3.348518 0.000000 0.000000
										CHANNELS 3 Xrotation Yrotation Zrotation
										JOINT RightHandIndex3
										{
											OFFSET -3.314552 0.000000 0.000000
											CHANNELS 3 Xrotation Yrotation Zrotation
											End Site
											{
												OFFSET 1.032898 3.075478 0.678804
											}
										}
									}
								}
								JOINT RightHandMiddle1
								{
									OFFSET -8.124588 0.000000 0.000000
									CHANNELS 3 Xrotation Yrotation Zrotation
									JOINT RightHandMiddle2
									{
										OFFSET -4.166275 0.000000 0.000000
										CHANNELS 3 Xrotation Yrotation Zrotation
										JOINT RightHandMiddle3
										{
											OFFSET -3.018097 0.000000 0.000000
											CHANNELS 3 Xrotation Yrotation Zrotation
											End Site
											{
												OFFSET 1.032700 2.767937 0.617197
											}
										}
									}
								}
								JOINT RightHandRing1
								{
									OFFSET -8.571747 -0.031349 -2.884061
									CHANNELS 3 Xrotation Yrotation Zrotation
									JOINT RightHandRing2
									{
										OFFSET -3.671204 0.000000 0.000000
										CHANNELS 3 Xrotation Yrotation Zrotation
										JOINT RightHandRing3
										{
											OFFSET -2.728874 0.000000 0.000000
											CHANNELS 3 Xrotation Yrotation Zrotation
											End Site
											{
												OFFSET 0.815804 2.539261 0.577413
											}
										}
									}
								}
								JOINT RightHandPinky1
								{
									OFFSET -7.854561 -0.675247 -5.212970
									CHANNELS 3 Xrotation Yrotation Zrotation
									JOINT RightHandPinky2
									{
										OFFSET -3.068550 0.000000 0.000000
										CHANNELS 3 Xrotation Yrotation Zrotation
										JOINT RightHandPinky3
										{
											OFFSET -2.395981 0.000000 0.000000
											CHANNELS 3 Xrotation Yrotation Zrotation
											End Site
											{
												OFFSET 0.524605 2.267952 0.567413
											}
										}
									}
								}
							}
							JOINT RightSleeve
							{
								OFFSET -19.684753 -0.200165 0.476065
								CHANNELS 3 Xrotation Yrotation Zrotation
								End Site
								{
									OFFSET 0.031342 25.731255 -0.002917
								}
							}
						}
					}
				}
				JOINT Hood
				{
					OFFSET 0.369700 14.447800 -5.317800
					CHANNELS 3 Xrotation Yrotation Zrotation
					JOINT Hood1
					{
						OFFSET 0.001700 -5.553802 -5.895100
						CHANNELS 3 Xrotation Yrotation Zrotation
						JOINT Hood2
						{
							OFFSET -0.000200 -8.380501 0.763600
							CHANNELS 3 Xrotation Yrotation Zrotation
							End Site
							{
								OFFSET 0.000000 8.415215 0.000000
							}
						}
					}
				}
				JOINT Left_Breast
				{
					OFFSET 5.682500 3.120102 3.188800
					CHANNELS 3 Xrotation Yrotation Zrotation
					End Site
					{
						OFFSET 0.000000 10.528564 0.000000
					}
				}
				JOINT Right_Breast
				{
					OFFSET -4.947600 3.120102 3.185900
					CHANNELS 3 Xrotation Yrotation Zrotation
					End Site
					{
						OFFSET 0.000000 10.528564 0.000000
					}
				}
				JOINT Whistle
				{
					OFFSET 0.368200 11.471298 0.095400
					CHANNELS 3 Xrotation Yrotation Zrotation
					JOINT Whistle1
					{
						OFFSET -0.002000 -6.349899 7.479800
						CHANNELS 3 Xrotation Yrotation Zrotation
						JOINT Whistle2
						{
							OFFSET -0.001300 -8.217598 4.717600
							CHANNELS 3 Xrotation Yrotation Zrotation
							End Site
							{
								OFFSET 0.000000 9.475479 0.000000
							}
						}
					}
				}
			}
		}
		JOINT Belly
		{
			OFFSET 0.212400 1.593002 3.163700
			CHANNELS 3 Xrotation Yrotation Zrotation
			End Site
			{
				OFFSET 0.000000 7.496635 0.000000
			}
		}
	}
	JOINT FitGrandmaFacialAnim_Joint
	{
		OFFSET 1.150000 -86.211197 -1.220100
		CHANNELS 3 Xrotation Yrotation Zrotation
		End Site
		{
			OFFSET 0.000000 31.666618 0.000000
		}
	}
}
MOTION
Frames: 4
Frame Time: 0.016667
-10.869138 72.998787 4.738620 5.754813 -41.233060 12.507330 -0.000000 0.000002 -0.000000 -50.031347 33.465342 37.585705 40.986015 -28.994211 2.405993 -3.281860 2.211037 -14.340529 0.000000 0.000000 -0.000000 0.000001 0.000002 -0.000001 -0.000006 -0.000000 -0.000000 -16.741584 -9.245567 -32.038928 56.130023 2.679926 -6.998368 -44.142174 -9.076282 24.054553 -0.000000 0.000002 0.000000 -0.000000 0.000003 0.000001 0.000000 -0.000002 0.000000 17.915559 -5.891856 2.976746 28.909028 -4.182640 -1.799678 17.801734 -2.616837 -3.497796 3.925433 -0.806472 17.439382 7.730343 1.255946 -11.559169 -0.000001 0.000000 -0.000002 -0.000001 0.000000 -0.000002 -0.000001 0.000000 -0.000002 -0.000001 0.000000 -0.000002 -0.000001 0.000000 -0.000002 -0.000001 0.000000 -0.000002 -0.000001 0.000000 -0.000002 -0.000001 0.000000 -0.000002 -0.000001 0.000000 -0.000002 -0.000001 0.000000 -0.000002 -0.000001 0.000000 -0.000002 -0.000001 0.000000 -0.000002 -0.000001 0.000000 -0.000002 -0.000001 0.000000 -0.000002 -0.000001 0.000000 -0.000002 -0.000001 0.000000 -0.000002 -0.000001 0.000000 -0.000002 -0.000001 0.000000 -0.000002 -0.000001 0.000000 -0.000002 2.354302 -30.783096 2.356267 -34.242832 -26.233536 -29.291423 -7.515770 -26.361392 1.290831 6.941791 -20.603901 5.351069 16.254349 -11.504936 21.549249 4.507357 18.475115 -9.635922 -0.000001 -0.000004 0.000001 1.539049 -3.432128 14.456415 -0.180794 -1.247043 -29.044123 0.000001 0.000003 -0.000001 1.659202 1.542440 -11.529131 0.180708 -1.715852 -25.398303 -0.000004 -0.000003 0.000002 -0.041057 5.351842 -28.839886 -0.820817 -0.913421 -27.616166 0.000003 0.000001 -0.000001 0.111638 11.221165 -18.652984 -0.848723 -0.437695 -22.689938 0.000000 -0.000001 -0.000001 -0.000001 0.000002 -0.000002 -0.512602 12.805415 24.404327 -20.406262 -19.745812 20.483681 -21.210985 81.262872 19.903183 -23.264557 11.560929 8.425358 55.149556 18.649562 -29.698267 -0.442538 -14.180590 7.313149 -0.000002 0.000002 0.000000 5.673403 7.585025 36.844147 1.050485 3.824500 68.900244 0.000001 0.000001 0.000001 -0.125697 1.886096 45.000749 -1.168980 3.204689 68.417650 -0.000005 0.000000 -0.000002 -5.311965 1.216649 58.508780 -0.745225 1.667580 48.011305 0.000003 -0.000005 -0.000002 -7.756785 -9.376486 47.263973 -0.526019 1.541641 45.600532 -0.000003 -0.000004 0.000001 -0.000000 -0.000001 0.000003 -0.000001 0.000000 0.000002 -0.000001 0.000000 0.000002 -0.000001 0.000000 0.000002 -0.000001 0.000000 0.000002 -0.000001 0.000000 0.000002 -0.000001 0.000000 0.000001 -0.000002 0.000002 -0.000003 -0.000002 0.000002 -0.000003 -0.000001 -0.000002 0.000000 -0.000000 0.000002 -0.000000 
-10.425392 73.224472 4.764538 4.215853 -40.690845 11.043272 -0.000000 0.000000 -0.000000 -49.767910 33.539965 37.773658 41.106940 -29.135080 2.402624 -2.995913 1.376599 -13.668300 -0.000000 0.000002 -0.000000 -0.000000 -0.000003 -0.000001 -0.000000 0.000000 0.000000 -15.134109 -10.097617 -31.781833 55.030643 2.523693 -6.932591 -43.471992 -9.155235 24.315250 0.000000 -0.000000 -0.000000 0.000004 0.000000 -0.000000 -0.000001 -0.000002 0.000000 17.691773 -5.772691 2.891231 28.357197 -3.983568 -2.018758 17.259835 -2.365360 -3.582326 3.399017 0.434953 18.470293 8.197279 1.394243 -12.300072 0.000000 0.000001 -0.000002 0.000000 0.000001 -0.000002 0.000000 0.000001 -0.000002 0.000000 0.000001 -0.000002 0.000000 0.000001 -0.000002 0.000000 0.000001 -0.000002 0.000000 0.000001 -0.000002 0.000000 0.000001 -0.000002 0.000000 0.000001 -0.000002 0.000000 0.000001 -0.000002 0.000000 0.000001 -0.000002 0.000000 0.000001 -0.000002 0.000000 0.000001 -0.000002 0.000000 0.000001 -0.000002 0.000000 0.000001 -0.000002 0.000000 0.000001 -0.000002 0.000000 0.000001 -0.000002 0.000000 0.000001 -0.000002 0.000000 0.000001 -0.000002 2.328555 -30.676859 2.585239 -33.628819 -25.347563 -29.746519 -7.805163 -23.996575 1.221977 7.439356 -16.512013 6.913799 16.348003 -10.644484 20.290662 4.173220 18.061320 -9.539050 -0.000001 0.000002 -0.000002 -0.027713 -3.469723 16.408554 -0.157423 -1.203775 -27.954894 -0.000002 0.000001 -0.000001 1.407617 2.022318 -8.664056 0.274501 -1.534076 -22.087514 -0.000001 -0.000003 0.000002 0.329452 4.603405 -25.951959 -0.773384 -0.788245 -24.421534 -0.000000 -0.000000 0.000002 1.291742 9.409265 -14.825726 -0.832742 -0.348423 -20.341060 -0.000001 -0.000001 -0.000000 -0.000001 0.000001 -0.000001 -0.608466 13.107901 25.085208 -20.872664 -20.553231 19.261017 -11.667315 82.321360 10.693814 -23.900119 9.732273 8.487045 55.149553 18.649562 -29.698260 -0.442537 -14.180592 7.313149 0.000000 -0.000001 -0.000002 5.673403 7.585021 36.844144 1.050484 3.824492 68.900250 -0.000003 -0.000002 0.000003 -0.125699 1.886095 45.000746 -1.168982 3.204693 68.417650 0.000001 -0.000002 -0.000000 -5.311970 1.216648 58.508780 -0.745227 1.667588 48.011309 -0.000002 -0.000002 0.000002 -7.756786 -9.376485 47.263966 -0.526021 1.541632 45.600529 -0.000003 -0.000001 0.000002 -0.000000 -0.000000 0.000000 0.000002 -0.000000 0.000002 0.000002 -0.000000 0.000002 0.000002 -0.000000 0.000002 0.000002 -0.000000 0.000002 0.000002 -0.000000 0.000002 0.000002 -0.000000 0.000000 -0.000000 -0.000001 0.000004 -0.000000 -0.000001 0.000004 0.000001 -0.000002 0.000002 -0.000000 0.000000 -0.000000 
-10.013535 73.409576 4.827675 2.993080 -39.957095 9.766206 -0.000000 -0.000003 -0.000000 -49.825069 33.525717 37.973943 41.327825 -29.299664 2.405801 -2.711838 0.494528 -12.960624 0.000000 -0.000000 -0.000000 -0.000000 -0.000002 -0.000000 -0.000003 -0.000000 -0.000000 -13.590602 -10.906230 -31.364679 53.919644 2.256232 -6.872130 -42.836091 -9.395537 24.593141 0.000000 0.000002 -0.000000 -0.000001 -0.000002 -0.000003 0.000000 0.000003 0.000001 17.489591 -5.574708 2.951485 27.805760 -3.750699 -1.987547 16.722212 -2.190764 -3.346999 2.348153 1.128155 18.345325 8.178878 1.108644 -12.085786 0.000001 0.000000 0.000001 0.000001 0.000000 0.000001 0.000001 0.000000 0.000001 0.000001 0.000000 0.000001 0.000001 0.000000 0.000001 0.000001 0.000000 0.000001 0.000001 0.000000 0.000001 0.000001 0.000000 0.000001 0.000001 0.000000 0.000001 0.000001 0.000000 0.000001 0.000001 0.000000 0.000001 0.000001 0.000000 0.000001 0.000001 0.000000 0.000001 0.000001 0.000000 0.000001 0.000001 0.000000 0.000001 0.000001 0.000000 0.000001 0.000001 0.000000 0.000001 0.000001 0.000000 0.000001 0.000001 0.000000 0.000001 2.242992 -30.396224 2.625575 -33.029190 -24.760069 -30.398119 -7.945691 -22.391713 0.965497 6.968092 -14.661039 7.619787 16.520312 -10.013532 19.194240 3.726987 17.497782 -9.405224 -0.000002 -0.000001 0.000001 -1.121914 -3.629169 17.132782 -0.125520 -1.141320 -26.402313 0.000000 -0.000002 0.000002 1.251177 2.428155 -6.762199 0.341902 -1.385035 -19.439915 -0.000005 0.000001 0.000001 0.442694 4.444539 -23.821678 -0.734563 -0.666188 -21.365057 0.000001 -0.000004 0.000003 2.196496 8.467070 -11.623433 -0.821267 -0.265669 -18.176554 -0.000002 -0.000001 0.000001 0.000001 -0.000001 0.000001 -0.501980 12.543243 24.284782 -20.300874 -21.057212 19.750057 -3.535202 83.023941 2.884083 -24.115016 8.786007 8.308340 55.149556 18.649557 -29.698267 -0.442535 -14.180588 7.313151 -0.000001 0.000001 -0.000002 5.673402 7.585022 36.844144 1.050483 3.824497 68.900250 -0.000009 0.000002 -0.000000 -0.125696 1.886092 45.000749 -1.168984 3.204686 68.417650 -0.000001 -0.000003 -0.000000 -5.311966 1.216651 58.508780 -0.745224 1.667581 48.011305 0.000006 0.000000 -0.000001 -7.756785 -9.376479 47.263963 -0.526017 1.541635 45.600529 0.000001 -0.000003 0.000001 -0.000002 -0.000000 0.000001 0.000003 -0.000001 0.000000 0.000003 -0.000001 0.000000 0.000003 -0.000001 0.000000 0.000003 -0.000001 0.000000 0.000003 -0.000001 0.000000 0.000003 -0.000001 0.000002 -0.000002 -0.000000 0.000002 -0.000002 -0.000000 0.000002 0.000002 0.000000 -0.000000 -0.000000 -0.000003 -0.000000 
-9.608562 73.583733 4.899539 1.917801 -39.109178 8.632236 0.000000 0.000002 -0.000000 -49.945659 33.525000 38.084288 41.511687 -29.460132 2.406192 -2.382046 -0.417745 -12.235685 0.000000 0.000002 -0.000000 -0.000000 -0.000002 -0.000000 0.000002 0.000001 0.000001 -12.067190 -11.693310 -30.916622 52.784354 1.939841 -6.811398 -42.195249 -9.709389 24.883566 0.000000 -0.000000 -0.000000 -0.000001 0.000000 -0.000002 -0.000001 -0.000005 0.000002 17.258109 -5.381263 2.990128 27.212097 -3.554405 -1.949091 16.129900 -2.065766 -3.134695 1.254578 1.689151 17.729141 7.834698 0.608332 -11.472244 -0.000001 -0.000001 0.000003 -0.000001 -0.000001 0.000003 -0.000001 -0.000001 0.000003 -0.000001 -0.000001 0.000003 -0.000001 -0.000001 0.000003 -0.000001 -0.000001 0.000003 -0.000001 -0.000001 0.000003 -0.000001 -0.000001 0.000003 -0.000001 -0.000001 0.000003 -0.000001 -0.000001 0.000003 -0.000001 -0.000001 0.000003 -0.000001 -0.000001 0.000003 -0.000001 -0.000001 0.000003 -0.000001 -0.000001 0.000003 -0.000001 -0.000001 0.000003 -0.000001 -0.000001 0.000003 -0.000001 -0.000001 0.000003 -0.000001 -0.000001 0.000003 -0.000001 -0.000001 0.000003 2.180227 -30.084688 2.687291 -32.508941 -24.092777 -31.048145 -8.014008 -21.085964 0.699031 6.449165 -13.147121 7.884988 16.823162 -9.647931 18.086865 3.016016 16.587743 -9.197020 -0.000002 0.000002 0.000001 -1.666537 -3.856546 16.343926 -0.080193 -1.044532 -24.034992 -0.000001 -0.000003 0.000003 1.220573 2.798728 -5.837807 0.392833 -1.258212 -17.228430 -0.000003 -0.000002 -0.000003 0.086349 5.042150 -22.266475 -0.697785 -0.522225 -17.818270 0.000001 -0.000000 0.000000 2.680521 8.471311 -8.438550 -0.812049 -0.171830 -15.734256 0.000000 -0.000001 0.000001 -0.000000 -0.000000 -0.000003 -0.531444 12.423656 23.593311 -19.558409 -22.044739 20.084123 3.473339 83.560234 -3.940026 -24.470169 8.375669 8.315513 55.149553 18.649557 -29.698267 -0.442534 -14.180586 7.313154 0.000001 0.000003 0.000004 5.673402 7.585025 36.844144 1.050482 3.824497 68.900250 0.000002 0.000002 -0.000000 -0.125696 1.886096 45.000753 -1.168982 3.204692 68.417650 -0.000002 -0.000003 0.000003 -5.311967 1.216650 58.508787 -0.745224 1.667577 48.011305 0.000003 -0.000001 -0.000001 -7.756787 -9.376479 47.263973 -0.526025 1.541639 45.600532 -0.000002 -0.000001 -0.000001 0.000001 -0.000002 0.000003 0.000001 0.000001 -0.000002 0.000001 0.000001 -0.000002 0.000001 0.000001 -0.000002 0.000001 0.000001 -0.000002 0.000001 0.000001 -0.000002 0.000001 0.000001 -0.000004 -0.000001 0.000001 -0.000002 -0.000001 0.000001 -0.000002 -0.000001 -0.000002 0.000000 0.000000 0.000002 -0.000000 
